<svg xmlns="http://www.w3.org/2000/svg" viewBox="0 0 19 418"><circle cx="4.5" cy="9.6" r="2.4"/><path d="M12.8 2.9l-2.2 1 2.2.9 1 2.4 1-2.4 2.2-.9-2.2-1-1-2.4-1 2.4z"/><circle fill="none" stroke="#000" stroke-width="1.32" stroke-miterlimit="10" cx="13.8" cy="16.1" r="1.6"/><circle fill="none" stroke="#333" stroke-width="1.5" stroke-miterlimit="10" stroke-opacity=".3" cx="9.6" cy="28.5" r="7.5"/><g><path fill="none" stroke="#333" stroke-width="1.5" stroke-miterlimit="10" d="M9.6 21c4.1 0 7.5 3.4 7.5 7.5"/><animateTransform attributeName="transform" type="rotate" from="0 9.6 28.5" to="360 9.6 28.5" dur="1s" repeatCount="indefinite"/></g><g><circle fill-opacity=".5" stroke="#FFF" stroke-width="1.5" stroke-miterlimit="10" cx="9.5" cy="47.4" r="7.5"/><path fill-rule="evenodd" clip-rule="evenodd" fill="#FFF" d="M13 47.8c.3-.2.3-.4 0-.6l-5-2.9c-.3-.2-.5 0-.5.3v5.8c0 .3.2.4.5.3l5-2.9z"/></g><g><path fill="#FFF" d="M11.3 68.3l.6-.6c.4-.4.6-1.2.6-2.4s-.4-2.2-1.3-3S9.5 61 8.3 61s-2.2.4-3 1.3c-.8.8-1.3 1.9-1.3 3 0 1.2.4 2.2 1.3 3s1.9 1.3 3 1.3 2.2-.4 3-1.3m6.2 5c0 .3-.1.6-.4.9-.2.2-.5.4-.9.4-.3 0-.6-.1-.9-.4L12 70.9c-1 .7-2.3 1.1-3.7 1.1-.9 0-1.8-.2-2.6-.5-.8-.4-1.6-.8-2.2-1.4S2.4 68.7 2 67.9c-.4-.8-.5-1.7-.5-2.6 0-.9.2-1.8.5-2.6s.8-1.6 1.4-2.2 1.3-1.1 2.2-1.4c.8-.4 1.7-.5 2.6-.5.9 0 1.8.2 2.6.5.8.4 1.6.8 2.2 1.4.6.6 1.1 1.3 1.4 2.2.4.8.5 1.7.5 2.6 0 1.4-.4 2.7-1.2 3.8l3.3 3.3c.4.2.5.5.5.9zM17.5 90.2v1.3c0 .2-.1.3-.2.5-.1.1-.3.2-.5.2H2.2c-.2 0-.3-.1-.5-.2s-.2-.3-.2-.5v-1.3c0-.2.1-.3.2-.5.1-.1.3-.2.5-.2h14.7c.2 0 .3.1.5.2 0 .1.1.3.1.5m0-5.4v1.3c0 .2-.1.3-.2.5-.1.1-.3.2-.5.2H2.2c-.2 0-.3-.1-.5-.2-.1-.1-.2-.3-.2-.5v-1.3c0-.2.1-.3.2-.5.1-.1.3-.2.5-.2h14.7c.2 0 .3.1.5.2 0 .2.1.4.1.5m0-5.3v1.3c0 .2-.1.3-.2.5-.1.1-.3.2-.5.2H2.2c-.2 0-.3-.1-.5-.2-.1-.1-.2-.3-.2-.5v-1.3c0-.2.1-.3.2-.5.1-.1.3-.2.5-.2h14.7c.2 0 .3.1.5.2 0 .2.1.3.1.5z"/><path d="M13.7 96.6v2.5h-1.5c-.6 0-.9.1-1.1.3-.2.2-.3.6-.3 1v1.8h2.8l-.4 2.8h-2.4v7.3h-3V105H5.3v-2.8h2.5v-2.1c0-1.2.3-2.1 1-2.8.7-.7 1.6-1 2.7-1 .9.2 1.6.2 2.2.3zM17.4 120.2c-.1-1.4-.5-2.6-1.3-3.4-.8-.8-1.9-1.2-3.4-1.3-.6 0-1.7-.1-3.3-.1s-2.7 0-3.3.1c-1.4.1-2.6.5-3.4 1.3-.8.8-1.2 1.9-1.3 3.4 0 .6-.1 1.7-.1 3.3s0 2.7.1 3.3c.1 1.4.5 2.6 1.3 3.4.8.8 1.9 1.2 3.4 1.3.6 0 1.7.1 3.3.1s2.7 0 3.3-.1c1.4-.1 2.6-.5 3.4-1.3.8-.8 1.2-1.9 1.3-3.4 0-.6.1-1.7.1-3.3s0-2.7-.1-3.3zm-1.3 4.1v2.1c0 .4-.1.8-.1 1.1-.1.3-.1.5-.2.7-.1.3-.3.7-.6.9s-.6.5-.9.6c-.2.1-.4.1-.7.2-.3.1-.7.1-1.1.1H9.6 6.7c-.4 0-.8-.1-1.1-.1-.3-.1-.5-.1-.7-.2-.3-.1-.7-.3-.9-.6-.3-.3-.5-.6-.6-.9-.1-.2-.1-.4-.2-.7s-.2-.7-.2-1.1v-1-1.1-.8-.8-1.1-1c0-.4.1-.8.1-1.1s.1-.5.2-.7c.1-.3.3-.7.6-.9.3-.3.6-.5.9-.6.2-.1.4-.1.7-.2s.7-.1 1.1-.1H12.4c.4 0 .8.1 1.1.1s.5.1.7.2c.3.1.7.3.9.6s.5.6.6.9c.1.2.1.4.2.7.1.3.1.7.1 1.1V123.5c.1 0 .1.3.1.8z"/><circle cx="13.8" cy="119.2" r="1"/><path d="M11.2 143.8s.1-.1.2-.3c.1-.2.2-.3.3-.3.1 0 .4.2 1 .5s.9.5.9.5v.2c0 .2-.1.5-.2.8-.1.3-.4.5-.7.7s-.7.3-1.1.3c-.4 0-1-.2-2-.6-.7-.3-1.3-.7-1.8-1.2s-1-1.1-1.5-1.9c-.5-.7-.7-1.4-.7-2v-.1c0-.6.3-1.2.8-1.6.2-.2.3-.2.5-.2h.4c.1 0 .2 0 .3.1.1 0 .1.1.2.3.1.1.2.4.3.9.2.5.3.7.3.8 0 .1-.1.3-.4.6-.2.3-.4.4-.4.5 0 0 0 .1.1.2.2.5.6 1 1.1 1.4.4.4.9.7 1.6 1 .1 0 .2.1.2.1.1-.2.3-.4.6-.7m-1.6 5c.9 0 1.7-.2 2.5-.5s1.5-.8 2.1-1.4c.6-.6 1-1.3 1.4-2.1.3-.8.5-1.6.5-2.5 0-.9-.2-1.7-.5-2.5s-.8-1.5-1.4-2.1c-.6-.6-1.3-1-2.1-1.4-.8-.3-1.6-.5-2.5-.5-.9 0-1.7.2-2.5.5s-1.5.8-2.1 1.4c-.6.6-1 1.3-1.4 2.1s-.5 1.6-.5 2.5c0 1.4.4 2.7 1.2 3.8l-.8 2.4 2.5-.8c1.2.7 2.4 1.1 3.6 1.1m-3-13.7s.2-.1.7-.3 1.2-.3 2.3-.3 2.1.2 3 .6 1.8 1 2.5 1.7 1.3 1.5 1.7 2.5c.4 1 .6 2 .6 3 0 1.1-.2 2.1-.6 3s-1 1.8-1.7 2.5-1.5 1.3-2.5 1.7-2 .6-3 .6c-1.3 0-2.6-.3-3.8-1l-4.3 1.4 1.4-4.2c-.7-1.2-1.1-2.6-1.1-4 0-1.1.2-2.1.6-3 .4-1 1-1.8 1.7-2.5s1.6-1.3 2.5-1.7zM16.4 166.4v-6.9l-.6.6c-1.6 1.2-2.9 2.2-3.8 3-.3.3-.6.5-.7.6-.2.1-.4.3-.8.4s-.6.2-.9.2c-.3 0-.6-.1-.9-.2s-.6-.3-.8-.4c-.2-.1-.4-.3-.7-.6-.9-.8-2.2-1.8-3.8-3l-.6-.6v6.9c0 .1 0 .1.1.2s.1.1.2.1h13.1c.1 0 .1 0 .2-.1-.1-.1 0-.2 0-.2m0-9.4s0-.1 0 0v-.2-.1-.1-.1s0-.1-.1-.1H2.9c-.1 0-.1 0-.2.1s-.1.1-.1.2c0 1 .4 1.8 1.3 2.5 1.1.9 2.3 1.8 3.6 2.8l.3.3c.2.1.3.3.4.3.1.1.2.2.4.3s.3.2.5.2.3.1.4.1c.1 0 .2 0 .4-.1s.3-.1.5-.2.3-.2.4-.3c.1-.1.2-.2.4-.3.2-.1.3-.2.3-.3 1.2-1 2.4-1.9 3.6-2.8.3-.3.6-.6.9-1 .2-.5.4-.9.4-1.2m1.1-.4v9.7c0 .4-.1.7-.4 1-.3.3-.6.4-1 .4H2.9c-.4 0-.7-.1-1-.4-.3-.3-.4-.6-.4-1v-9.7c0-.4.1-.7.4-1 .3-.3.6-.4 1-.4H16c.4 0 .7.1 1 .4.4.3.5.6.5 1zM15 217.3v1.2c0 1.4-.5 2.6-1.4 3.7-.9 1-2.1 1.6-3.5 1.8v1.3h2.5c.2 0 .3.1.4.2.1.1.2.3.2.4 0 .2-.1.3-.2.4-.1.1-.3.2-.4.2H6.4c-.2 0-.3-.1-.4-.2-.1-.1-.2-.3-.2-.4s.1-.3.2-.4.3-.2.4-.2h2.5V224c-1.4-.2-2.6-.8-3.5-1.8S4 219.9 4 218.5v-1.2c0-.2.1-.3.2-.4.1-.1.3-.2.4-.2.2 0 .3.1.4.2.1.1.2.3.2.4v1.2c0 1.2.4 2.2 1.3 3s1.9 1.3 3 1.3 2.2-.4 3-1.3c.8-.8 1.3-1.9 1.3-3v-1.2c0-.2.1-.3.2-.4.1-.1.3-.2.4-.2.2 0 .3.1.4.2.2.1.2.2.2.4m-2.4-3.7v4.9c0 .8-.3 1.6-.9 2.2-.6.6-1.3.9-2.2.9-.8 0-1.6-.3-2.2-.9s-.9-1.3-.9-2.2v-4.9c0-.8.3-1.6.9-2.2s1.3-.9 2.2-.9c.8 0 1.6.3 2.2.9s.9 1.3.9 2.2zM7.8 201.6l4.3-2.2-4.3-2.3v4.5m1.7-7.7h2.9c.9 0 1.6.1 2 .1H15.7c.1 0 .2 0 .3.1s.2.1.2.1c.1 0 .2.1.3.2.1.1.2.1.3.2 0 0 .1.1.1.2.1.1.1.2.3.5.1.3.2.6.2.9 0 .4.1.8.1 1.2v2.6c0 .9 0 1.7-.2 2.6 0 .3-.1.6-.2.9-.1.3-.2.4-.3.5l-.1.2c-.1.1-.2.2-.3.2-.1.1-.2.1-.3.2-.1 0-.2.1-.2.1s-.2.1-.3.1h-.2H15.1c-1.5.1-3.4.2-5.6.2-1.2 0-2.3 0-3.2-.1-.9 0-1.5 0-1.8-.1h-.7c-.2 0-.4-.1-.5-.1s-.3-.1-.5-.2-.4-.2-.5-.4c0 0-.1-.1-.1-.2-.1-.1-.1-.2-.3-.5-.1-.3-.2-.6-.2-.9 0-.4-.1-.8-.1-1.2v-2.6c0-.9 0-1.7.2-2.6 0-.3.1-.6.2-.9s.2-.4.3-.5l.1-.2c.1-.1.2-.2.3-.2s.2-.1.3-.2.2-.1.2-.1c.1 0 .2-.1.3-.1h6z"/><path fill="#444" d="M17.5 280.1c0 .2 0 .5-.1.8-.1.3-.2.6-.2.8-.2.4-.6.8-1.4 1.2-.7.4-1.4.6-2.1.6h-.6c-.2 0-.4-.1-.7-.1-.2-.1-.4-.1-.5-.2s-.3-.1-.6-.2-.5-.2-.6-.2c-.7-.3-1.4-.6-2-.9-1-.6-2-1.4-3-2.5-1-1-1.9-2-2.5-3-.4-.6-.7-1.2-.9-2 0-.1-.1-.3-.2-.6s-.2-.5-.2-.6c0-.1-.1-.3-.2-.5s-.1-.5-.1-.7v-.6c0-.7.2-1.4.6-2.1.4-.8.8-1.2 1.2-1.4.2-.1.4-.2.8-.2.3-.1.6-.1.8-.1h.2c.1 0 .3.3.6.9.1.1.2.3.3.6.1.3.3.5.4.7.1.2.2.4.4.6 0 0 .1.1.2.3.1.2.2.3.2.4.1.1.1.2.1.3 0 .2-.1.3-.3.6-.2.2-.5.4-.7.6-.3.2-.5.4-.7.6-.2.2-.3.4-.3.5 0 .1 0 .2.1.3 0 .1.1.2.1.2 0 .1.1.1.2.3.1.1.1.2.1.2.6 1 1.2 1.9 2 2.7.7.7 1.6 1.4 2.7 2 0 0 .1.1.2.1.1.1.2.1.3.2.1 0 .1.1.2.1s.2.1.3.1c.1 0 .3-.1.5-.3.2-.2.4-.5.6-.7.2-.3.4-.5.6-.7.2-.2.4-.3.6-.3.1 0 .2 0 .3.1s.2.1.4.2.3.2.3.2c.2.1.4.2.6.4s.5.3.7.4c.3.1.5.3.6.3.5.3.8.5.9.6-.2-.1-.2-.1-.2 0zM14 289.4l-5.2 5.2 5.2 5.2c.1.1.2.3.2.4 0 .2-.1.3-.2.4l-1.6 1.6c-.1.1-.3.2-.4.2-.2 0-.3-.1-.4-.2L4.2 295c-.1-.1-.2-.3-.2-.4 0-.2.1-.3.2-.4l7.3-7.3c.1-.1.3-.2.4-.2.2 0 .3.1.4.2l1.6 1.6c.1.1.2.3.2.4.1.2 0 .4-.1.5zM15.4 314l-7.3 7.3c-.1.1-.3.2-.4.2s-.3-.1-.4-.2l-1.6-1.6c-.1-.1-.2-.3-.2-.4 0-.2.1-.3.2-.4l5.2-5.2-5.2-5.2c-.1-.1-.2-.3-.2-.4 0-.2.1-.3.2-.4l1.6-1.6c.1-.1.3-.2.4-.2s.3.1.4.2l7.3 7.3c.1.1.2.3.2.4 0-.1-.1.1-.2.2z"/><circle fill="none" stroke="#000" stroke-width="1.4" stroke-miterlimit="10" cx="9.5" cy="123.5" r="3.4"/><path d="M9.5 248.4c-4.5 0-8.1 3.7-8.1 8.2s3.7 8.2 8.1 8.2 8.2-3.7 8.2-8.2-3.7-8.2-8.2-8.2zm4.3 8.1c0 .3-.1.4-.3.6l-5.7 3.3c-.1.1-.2.1-.3.1-.1 0-.2 0-.3-.1-.2-.1-.3-.3-.3-.6v-6.7c0-.3.1-.5.3-.6.2-.1.5-.1.7 0l5.7 3.3c.1.2.2.4.2.7zM9.5 229.3c-4.5 0-8.2 3.7-8.2 8.2s3.7 8.2 8.2 8.2c4.5 0 8.2-3.7 8.2-8.2s-3.7-8.2-8.2-8.2zm3.7 9.7c-1.5-.9-3.1-1.3-5.1-1.3-.9 0-1.8.1-2.6.3-.2.1-.3.1-.4.1-.2 0-.3-.1-.4-.2-.1-.1-.2-.3-.2-.4 0-.4.2-.6.5-.7 1-.3 2.1-.4 3.2-.4 2.2 0 4.1.5 5.7 1.5.2.1.4.4.4.6 0 .2-.1.3-.2.4-.1.1-.3.2-.4.2-.2.1-.3 0-.5-.1zm0 1.8c0 .1 0 .3-.1.4-.1.1-.2.1-.3.1-.1 0-.2 0-.3-.1-1.2-.7-2.6-1.1-4.1-1.1-.8 0-1.6.1-2.5.3-.2.1-.4.1-.4.1-.2 0-.3-.1-.4-.2-.1-.1-.1-.2-.1-.4 0-.3.1-.5.4-.5 1.1-.2 2.1-.4 3-.4 1.8 0 3.3.4 4.7 1.2 0 .2.1.3.1.6zm1-4.2c-.7-.4-1.6-.8-2.6-1-1-.2-2.1-.4-3.2-.4-1.2 0-2.3.1-3.2.4-.2.1-.3.1-.4.1-.2 0-.4-.1-.5-.2s-.3-.3-.3-.6c0-.2.1-.4.2-.5s.2-.2.4-.3c1.1-.3 2.4-.5 3.8-.5 1.2 0 2.4.1 3.6.4 1.2.3 2.2.6 3.1 1.2.3.2.4.4.4.7 0 .2-.1.4-.2.5-.1.1-.3.2-.5.2-.3.1-.5.1-.6 0zM9.1 183.4c.1.1.3.2.4.2s.3-.1.4-.2l4.3-4.3c.2-.2.2-.4.1-.7-.1-.2-.3-.4-.6-.4h-2.5v-4.3c0-.2-.1-.3-.2-.4-.1-.1-.3-.2-.4-.2H8.3c-.2 0-.3.1-.4.2-.1.1-.2.3-.2.4v4.3H5.2c-.3 0-.5.1-.6.4-.1.3-.1.5.1.7l4.4 4.3z"/><path d="M17.2 183.2c-.2-.2-.4-.3-.7-.3H12l-1.3 1.3c-.4.4-.8.5-1.3.5s-.9-.2-1.3-.5L6.9 183H2.4c-.3 0-.5.1-.7.3-.2.2-.3.4-.3.7v3.1c0 .3.1.5.3.7.2.2.4.3.7.3h14.2c.3 0 .5-.1.7-.3.2-.2.3-.4.3-.7V184c-.1-.4-.2-.6-.4-.8zm-4 3.5c-.4 0-.6-.3-.6-.6 0-.4.3-.6.6-.6s.6.3.6.6-.3.6-.6.6zm2.5 0c-.4 0-.6-.3-.6-.6 0-.4.3-.6.6-.6.4 0 .6.3.6.6s-.3.6-.6.6z"/><path fill="#2D8BC9" d="M15.8 331.2l-11-6.5c-.9-.5-2.3 0-2.3 1.3v13c0 1.2 1.3 1.9 2.3 1.3l11-6.5c.9-.6.9-2 0-2.6zM6.7 359.5H3.3c-.9 0-1.7-.8-1.7-1.7v-12.6c0-.9.8-1.7 1.7-1.7h3.4c.9 0 1.7.8 1.7 1.7v12.6c0 .9-.8 1.7-1.7 1.7zm10.8-1.7v-12.6c0-.9-.8-1.7-1.7-1.7h-3.4c-.9 0-1.7.8-1.7 1.7v12.6c0 .9.8 1.7 1.7 1.7h3.4c1 0 1.7-.8 1.7-1.7zM9.5 362.5c-2.1 0-4.1.8-5.5 2.2l-1.2-1.2c-.5-.5-1.3-.1-1.3.5v4.3c0 .4.3.8.8.8h4.3c.7 0 1-.8.5-1.3l-1.3-1.3c1-.9 2.3-1.4 3.7-1.5 3 0 5.5 2.4 5.5 5.5 0 2.9-2.4 5.4-5.4 5.4-1.3 0-2.6-.5-3.6-1.3-.2-.1-.4-.1-.5 0l-1.3 1.3c-.2.2-.1.4 0 .6 1.4 1.3 3.3 2.1 5.4 2.1 4.4 0 8-3.6 8-8-.1-4.5-3.7-8.1-8.1-8.1z"/><g><circle cx="3.7" cy="395.2" r="2.2"/><path d="M1.5 381.6v2.7c7.3 0 13.2 5.9 13.2 13.2h2.7c.1 0 .1 0 .1-.1-.1-8.8-7.1-15.9-16-15.8 0-.1 0-.1 0 0zm0 5.8v2.7c4.1 0 7.4 3.3 7.4 7.4h2.7c.1 0 .1 0 .1-.1-.1-5.6-4.6-10-10.2-10 0-.1 0 0 0 0z"/></g></g><g fill="#fff"><polygon opacity="0.4" points="10.4,400.8 10.4,401.3 10.4,405.9 14.9,405.9 15.4,405.9"/><path d="M15.1,406.5h-4.7c-0.4,0-0.7-0.3-0.7-0.7v-4.7v-0.3c0-0.1,0-0.2,0.1-0.3H3.6c-0.2,0-0.3,0.2-0.3,0.3v15.3 c0,0.2,0.2,0.3,0.3,0.3h11.8c0.2,0,0.3-0.2,0.3-0.3v-9.7c-0.1,0.1-0.2,0.1-0.3,0.1H15.1z M13.7,413H5.3c-0.2,0-0.3-0.2-0.3-0.3 s0.2-0.3,0.3-0.3h8.3c0.2,0,0.3,0.2,0.3,0.3S13.9,413,13.7,413z M13.7,411.4H5.3c-0.2,0-0.3-0.2-0.3-0.3c0-0.2,0.2-0.3,0.3-0.3 h8.3c0.2,0,0.3,0.2,0.3,0.3C14,411.3,13.9,411.4,13.7,411.4z M13.7,409.8H5.3c-0.2,0-0.3-0.2-0.3-0.3c0-0.2,0.2-0.3,0.3-0.3h8.3 c0.2,0,0.3,0.2,0.3,0.3C14,409.7,13.9,409.8,13.7,409.8z"/></g></svg>